<?xml version="1.0" encoding="UTF-8"?>
<svg version="1.1" xmlns="http://www.w3.org/2000/svg" width="418" height="418">
<path d="M0 0 C15.84 0 31.68 0 48 0 C48 16.5 48 33 48 50 C51.3 50.33 54.6 50.66 58 51 C60.69858756 51.67594679 63.25020062 52.3748441 65.875 53.25 C66.56134521 53.47324951 67.24769043 53.69649902 67.95483398 53.92651367 C82.20920484 58.65029761 95.01060542 65.57748881 108 73 C119.22 61.78 130.44 50.56 142 39 C145.30456114 40.65228057 146.83272811 41.58545539 149.29980469 44.07275391 C150.23031647 45.00349228 150.23031647 45.00349228 151.17962646 45.95303345 C151.83706848 46.62079803 152.4945105 47.28856262 153.171875 47.9765625 C153.8542926 48.66181 154.53671021 49.3470575 155.23980713 50.05307007 C157.41461598 52.23905845 159.58236072 54.43190429 161.75 56.625 C163.2247999 58.10983255 164.70005506 59.59421306 166.17578125 61.078125 C169.78915448 64.7135291 173.39620853 68.35509824 177 72 C175.65427113 74.99943905 174.16462899 77.08076179 171.83544922 79.39160156 C170.87467972 80.35214447 170.87467972 80.35214447 169.89450073 81.33209229 C169.20486237 82.01140808 168.515224 82.69072388 167.8046875 83.390625 C166.74352219 84.44754547 166.74352219 84.44754547 165.66091919 85.52581787 C163.40360138 87.7719539 161.13942367 90.01103009 158.875 92.25 C157.34199047 93.77297717 155.80943285 95.29640939 154.27734375 96.8203125 C150.52345427 100.55216815 146.76391086 104.27825351 143 108 C147.01577314 115.40478129 147.01577314 115.40478129 151.125 122.7578125 C158.57814309 136.1424153 166 152.4694186 166 168 C182.5 168 199 168 216 168 C216 183.84 216 199.68 216 216 C184.32 216 152.64 216 120 216 C119.34 203.46 118.68 190.92 118 178 C114.43233972 163.54775425 114.43233972 163.54775425 109 150 C108.55914062 149.07703125 108.11828125 148.1540625 107.6640625 147.203125 C96.86098782 126.07445961 77.39110675 110.00161152 55.05322266 102.33154297 C27.99108508 93.72860319 1.37738988 96.90916872 -23.625 109.8125 C-45.50984961 122.16583918 -60.34627266 142.61579196 -67.3125 166.5 C-71.8904134 183.34363073 -70.96347209 196.30596977 -72 216 C-103.68 216 -135.36 216 -168 216 C-168 200.16 -168 184.32 -168 168 C-151.5 168 -135 168 -118 168 C-117.67 164.7 -117.34 161.4 -117 158 C-116.32405321 155.30141244 -115.6251559 152.74979938 -114.75 150.125 C-114.52675049 149.43865479 -114.30350098 148.75230957 -114.07348633 148.04516602 C-109.34970239 133.79079516 -102.42251119 120.98939458 -95 108 C-106.22 96.78 -117.44 85.56 -129 74 C-127.34771943 70.69543886 -126.41454461 69.16727189 -123.92724609 66.70019531 C-123.30675385 66.07985413 -122.6862616 65.45951294 -122.04696655 64.82037354 C-121.37920197 64.16293152 -120.71143738 63.5054895 -120.0234375 62.828125 C-119.33819 62.1457074 -118.6529425 61.46328979 -117.94692993 60.76019287 C-115.76094155 58.58538402 -113.56809571 56.41763928 -111.375 54.25 C-109.89016745 52.7752001 -108.40578694 51.29994494 -106.921875 49.82421875 C-103.2864709 46.21084552 -99.64490176 42.60379147 -96 39 C-93.00056095 40.34572887 -90.91923821 41.83537101 -88.60839844 44.16455078 C-87.9680365 44.80506378 -87.32767456 45.44557678 -86.66790771 46.10549927 C-85.98859192 46.79513763 -85.30927612 47.484776 -84.609375 48.1953125 C-83.90476135 48.90275604 -83.20014771 49.61019958 -82.47418213 50.33908081 C-80.2280461 52.59639862 -77.98896991 54.86057633 -75.75 57.125 C-74.22702283 58.65800953 -72.70359061 60.19056715 -71.1796875 61.72265625 C-67.44783185 65.47654573 -63.72174649 69.23608914 -60 73 C-52.59521871 68.98422686 -52.59521871 68.98422686 -45.2421875 64.875 C-31.8575847 57.42185691 -15.5305814 50 0 50 C0 33.5 0 17 0 0 Z " fill="#FFFFFF" transform="translate(185,23)"/>
<path d="M0 0 C9.68565534 6.85082939 17.86815897 14.93675145 25.59570312 23.90429688 C32.6822032 32.44546312 32.6822032 32.44546312 42.59570312 36.22851562 C51.76070136 36.51310957 51.76070136 36.51310957 59.35351562 31.89257812 C60.15789062 31.12945312 60.96226562 30.36632812 61.79101562 29.58007812 C62.63664063 28.69320312 63.48226562 27.80632812 64.35351562 26.89257812 C65.47758744 25.78746656 66.60265707 24.68336936 67.72851562 23.58007812 C70.14865772 21.1703229 72.40315744 18.69102946 74.60351562 16.08007812 C86.43699189 2.48080473 100.41262123 -6.96053112 118.35351562 -10.10742188 C140.79940098 -11.5090951 159.43535137 -8.47304045 176.82617188 6.56835938 C182.78498201 12.04825432 188.31332786 17.77428465 193.59570312 23.90429688 C199.96058718 31.10368795 204.4821314 36.04858902 214.35351562 36.89257812 C218.49758776 37.14083388 222.64236811 37.30471389 226.79101562 37.45507812 C230.60664063 37.59945312 234.42226563 37.74382812 238.35351562 37.89257812 C238.35351562 53.73257813 238.35351562 69.57257813 238.35351562 85.89257812 C229.81476563 85.98539063 229.81476563 85.98539063 221.10351562 86.08007812 C219.33331055 86.10739014 217.56310547 86.13470215 215.73925781 86.1628418 C192.77134363 86.37325403 176.40416885 77.75672019 160.10351562 61.83007812 C156.9883852 58.63263734 154.06337916 55.29347275 151.14648438 51.91601562 C142.99595294 42.55666076 142.99595294 42.55666076 131.49414062 38.93554688 C124.01411741 38.78540042 118.76724422 41.96104398 113.35351562 46.89257812 C110.89651831 49.45975469 108.63008577 52.16553772 106.35351562 54.89257812 C93.04525139 70.31919902 78.98770181 82.27327531 58.35351562 85.89257812 C34.97049563 87.35277239 16.73185221 83.62092291 -1.22070312 68.11523438 C-6.80025496 63.00289139 -11.90996839 57.64012294 -16.85351562 51.91601562 C-25.00404706 42.55666076 -25.00404706 42.55666076 -36.50585938 38.93554688 C-43.98588259 38.78540042 -49.23275578 41.96104398 -54.64648438 46.89257812 C-57.10348169 49.45975469 -59.36991423 52.16553772 -61.64648438 54.89257812 C-74.8289428 70.17336795 -89.06800975 82.57136861 -109.64648438 85.89257812 C-112.44314637 85.9745684 -115.21403968 86.00926107 -118.00976562 85.99023438 C-118.71242554 85.98922729 -119.41508545 85.98822021 -120.13903809 85.98718262 C-122.74570362 85.98197913 -125.35234576 85.96801799 -127.95898438 85.95507812 C-133.79585937 85.93445313 -139.63273437 85.91382813 -145.64648438 85.89257812 C-145.64648438 70.05257812 -145.64648438 54.21257812 -145.64648438 37.89257812 C-134.20898437 37.51757812 -134.20898437 37.51757812 -130.66040039 37.41455078 C-120.07629301 37.01866558 -111.59397386 36.14469512 -104.04492188 28.20898438 C-102.90132758 26.90550367 -101.77202095 25.5894029 -100.65429688 24.26367188 C-75.50867582 -5.43164326 -36.4101189 -24.48936823 0 0 Z " fill="#FFFFFF" transform="translate(162.646484375,297.107421875)"/>
</svg>
