<?xml version="1.0" encoding="utf-8"?>
<!-- Generator: Adobe Illustrator 27.5.0, SVG Export Plug-In . SVG Version: 6.00 Build 0)  -->
<svg version="1.1" xmlns="http://www.w3.org/2000/svg" xmlns:xlink="http://www.w3.org/1999/xlink" x="0px" y="0px"
	 viewBox="0 0 800 800" style="enable-background:new 0 0 800 800;" xml:space="preserve">
<g id="background">
	<g>
		<rect style="fill:#2D3033;" width="800" height="800"/>
	</g>
</g>
<g id="graphic_element">
	<g>
		<defs>
			<rect id="SVGID_1_" width="800" height="800"/>
		</defs>
		<clipPath id="SVGID_00000063630892084906594500000011253286068772187066_">
			<use xlink:href="#SVGID_1_"  style="overflow:visible;"/>
		</clipPath>
		<g style="clip-path:url(#SVGID_00000063630892084906594500000011253286068772187066_);">
			<g>
				<defs>
					<path id="SVGID_00000098932756844301876570000008002344990324021430_" d="M741.663,817.675c0-6.627,3.294-9.758,7.464-13.722
						c4.519-4.296,9.641-9.164,9.641-18.796c0-9.632-5.122-14.501-9.641-18.797c-4.17-3.963-7.464-7.094-7.464-13.722
						c0-6.626,3.294-9.756,7.463-13.719c4.52-4.295,9.642-9.162,9.642-18.791c0,9.63,5.122,14.499,9.641,18.794c4.17,3.963,7.464,7.093,7.464,13.719
						c0,6.626-3.294,9.756-7.463,13.719c-4.519,4.295-9.642,9.164-9.642,18.794c0,9.631,5.122,14.499,9.641,18.794
						c4.17,3.963,7.464,7.094,7.464,13.72c0,6.626-3.294,9.757-7.464,13.72c-4.519,4.296-9.641,9.163-9.641,18.794
						c0,9.631,5.122,14.5,9.641,18.796c4.17,3.964,7.464,7.095,7.464,13.723c0,6.627-3.294,9.758-7.464,13.722
						c-4.519,4.296-9.641,9.164-9.641,18.796c0,1.933,1.567,3.5,3.5,3.5C740.096,821.175,741.663,819.608,741.663,817.675z"/>
				</defs>
				... (file content truncated for brevity) ...
			</g>
		</g>
	</g>
</g>
</svg>